<svg width="202" height="202" viewBox="0 0 202 202" fill="none" xmlns="http://www.w3.org/2000/svg">
<g clip-path="url(#clip0_2227_373)">
<path d="M104.484 69.2127L169.208 181.349C170.816 184.198 174.907 184.271 176.733 181.568L200.694 144.53C201.571 143.142 201.644 141.389 200.84 139.928L129.102 15.9572C127.422 13.0351 123.185 13.0351 121.505 15.9572L100.393 52.3375C99.5892 53.7255 98.1281 54.5291 96.594 54.5291H52.4701C50.863 54.5291 49.475 55.3326 48.6714 56.7207L0.602685 140.147C-0.200895 141.535 -0.200895 143.142 0.602685 144.53L24.1257 185.44C24.9293 186.828 26.3903 187.631 27.9244 187.631H122.309C125.669 187.631 127.788 183.979 126.107 181.056L104.411 143.58C102.73 140.658 98.4934 140.658 96.8132 143.58L79.938 172.948C78.2578 175.87 74.0207 175.87 72.3405 172.948L55.9767 144.53C55.1731 143.142 55.1731 141.535 55.9767 140.147L96.8132 69.2857C98.4934 66.3636 102.73 66.3636 104.411 69.2857L104.484 69.2127Z" fill="#FF802C"/>
</g>
<defs>
<clipPath id="clip0_2227_373">
<rect width="201.4" height="201.4" fill="white"/>
</clipPath>
</defs>
</svg>
